<svg xmlns="http://www.w3.org/2000/svg" xmlns:xlink="http://www.w3.org/1999/xlink" width="500" zoomAndPan="magnify" viewBox="0 0 375 374.999991" height="500" preserveAspectRatio="xMidYMid meet" version="1.0"><defs><clipPath id="2ce43d97b2"><path d="M 13.632812 0 L 361.378906 0 L 361.378906 375 L 13.632812 375 Z M 13.632812 0 " clip-rule="nonzero"/></clipPath></defs><g clip-path="url(#2ce43d97b2)"><path fill="#8c52ff" d="M 187.519531 315.246094 L 187.519531 375 L 13.632812 258.625 L 13.632812 198.871094 Z M 13.644531 116.292969 L 13.644531 176.046875 L 187.53125 292.417969 L 187.53125 232.664062 Z M 361.378906 198.871094 L 344.320312 187.457031 L 299.675781 217.332031 L 316.738281 228.75 Z M 361.300781 116.335938 L 187.464844 0 L 187.464844 59.753906 L 316.65625 146.214844 Z M 255.035156 187.457031 L 187.464844 142.234375 L 187.464844 82.480469 L 299.675781 157.578125 L 255.035156 187.457031 " fill-opacity="1" fill-rule="nonzero"/><path fill="#5e17eb" d="M 13.632812 198.871094 L 30.691406 187.457031 L 75.332031 217.332031 L 58.273438 228.75 Z M 13.710938 116.335938 L 187.542969 0 L 187.542969 59.753906 L 58.351562 146.214844 Z M 119.976562 187.457031 L 187.542969 142.234375 L 187.542969 82.480469 L 75.332031 157.578125 Z M 187.492188 315.246094 L 187.492188 375 L 361.378906 258.625 L 361.378906 198.871094 Z M 361.367188 116.292969 L 361.367188 176.046875 L 187.480469 292.417969 L 187.480469 232.664062 L 361.367188 116.292969 " fill-opacity="1" fill-rule="nonzero"/></g></svg>